<svg viewBox="0 0 158 95" fill="none" xmlns="http://www.w3.org/2000/svg">
<g opacity="0.2">
<path d="M63.5 1H71.5V81H63.5V1Z" fill="url(#paint0_linear_10_13)"/>
<path d="M42.5 23H50.5V81H42.5V23Z" fill="url(#paint1_linear_10_13)"/>
<path d="M21.5 42H29.5V81H21.5V42Z" fill="url(#paint2_linear_10_13)"/>
<path d="M0.5 58H8.5V81H0.5V58Z" fill="url(#paint3_linear_10_13)"/>
<path d="M71.5 1L77.5 7L81.5 1" stroke="white" stroke-width="1.5"/>
<path d="M81 88C84.5899 88 87.5 85.0899 87.5 81.5C87.5 77.9101 84.5899 75 81 75C77.4101 75 74.5 77.9101 74.5 81.5C74.5 85.0899 77.4101 88 81 88Z" stroke="white"/>
<path d="M87 81.5H158" stroke="white" stroke-dasharray="2 2"/>
<path d="M81 62C84.5899 62 87.5 59.0899 87.5 55.5C87.5 51.9101 84.5899 49 81 49C77.4101 49 74.5 51.9101 74.5 55.5C74.5 59.0899 77.4101 62 81 62Z" stroke="white"/>
<path d="M87 55.5H158" stroke="white" stroke-dasharray="2 2"/>
<path d="M81 36C84.5899 36 87.5 33.0899 87.5 29.5C87.5 25.9101 84.5899 23 81 23C77.4101 23 74.5 25.9101 74.5 29.5C74.5 33.0899 77.4101 36 81 36Z" stroke="white"/>
<path d="M87 29.5H158" stroke="white" stroke-dasharray="2 2"/>
</g>
<defs>
<linearGradient id="paint0_linear_10_13" x1="67.5" y1="1" x2="67.5" y2="81" gradientUnits="userSpaceOnUse">
<stop stop-color="white"/>
<stop offset="1" stop-color="white" stop-opacity="0"/>
</linearGradient>
<linearGradient id="paint1_linear_10_13" x1="46.5" y1="23" x2="46.5" y2="81" gradientUnits="userSpaceOnUse">
<stop stop-color="white"/>
<stop offset="1" stop-color="white" stop-opacity="0"/>
</linearGradient>
<linearGradient id="paint2_linear_10_13" x1="25.5" y1="42" x2="25.5" y2="81" gradientUnits="userSpaceOnUse">
<stop stop-color="white"/>
<stop offset="1" stop-color="white" stop-opacity="0"/>
</linearGradient>
<linearGradient id="paint3_linear_10_13" x1="4.5" y1="58" x2="4.5" y2="81" gradientUnits="userSpaceOnUse">
<stop stop-color="white"/>
<stop offset="1" stop-color="white" stop-opacity="0"/>
</linearGradient>
</defs>
</svg>