<svg width="215" height="40" viewBox="0 0 215 40" fill="none" xmlns="http://www.w3.org/2000/svg">
<path d="M153.502 27.926H131.621V29.848H153.502V27.926V27.926Z" fill="#FCFCFC"/>
<path d="M151.49 18.9173H133.618V20.8393H151.49V18.9173Z" fill="#FCFCFC"/>
<path d="M65.4775 10.8451C64.8012 10.5443 64.0767 10.3939 63.2877 10.3939H52.5965C51.8076 10.3939 51.0991 10.5443 50.4229 10.8618C48.9899 11.5303 47.9916 12.5666 47.3476 14.054C47.0578 14.756 46.9128 15.5081 46.9128 16.3103V24.2824C46.9128 25.1013 47.0578 25.8534 47.3637 26.5721C47.9916 28.0428 48.9899 29.0958 50.439 29.7643C51.083 30.0484 51.8237 30.1988 52.6126 30.1988H63.3038C64.0928 30.1988 64.8173 30.0484 65.5097 29.7476C66.9105 29.0958 67.9248 28.0428 68.5528 26.5554C68.6333 26.3381 68.7138 26.1041 68.7782 25.8869H66.7655C66.5884 26.3214 66.3147 26.7225 65.9766 27.0735C65.252 27.8256 64.3343 28.2267 63.3038 28.2267H52.6126C51.5822 28.2267 50.6644 27.8256 49.9399 27.0735C49.2153 26.3214 48.8289 25.352 48.8289 24.2824V16.3103C48.8289 15.2406 49.2153 14.2713 49.9399 13.5192C50.6644 12.7671 51.5822 12.3827 52.6126 12.3827H63.3038C64.3343 12.3827 65.252 12.7838 65.9766 13.5192C66.3147 13.8702 66.5884 14.2713 66.7816 14.7058H68.7943C68.7299 14.4718 68.6494 14.2379 68.5689 14.0206C67.9087 12.5666 66.8943 11.5136 65.4775 10.8451Z" fill="#FCFCFC"/>
<path d="M120.64 10.812C120.012 10.5279 119.352 10.3942 118.627 10.3942H101.963V12.3663H118.627C119.529 12.3663 120.334 12.7173 120.962 13.3858C121.606 14.0543 121.928 14.9067 121.928 15.8426C121.928 16.7786 121.59 17.6142 120.962 18.2995C120.318 18.9847 119.513 19.3357 118.611 19.3357H101.963V30.2326H118.627C119.352 30.2326 120.012 30.0989 120.64 29.8147C121.284 29.5306 121.815 29.1462 122.314 28.6448C123.329 27.5251 123.828 26.2716 123.828 24.8008C123.828 23.5474 123.442 22.4109 122.62 21.3245L121.864 20.3217L122.637 19.3357C123.007 18.8677 123.297 18.3329 123.49 17.7479C123.699 17.1295 123.812 16.4944 123.812 15.8928C123.812 14.3886 123.313 13.1184 122.282 12.0154C121.815 11.4805 121.268 11.0961 120.64 10.812ZM121.944 24.7674C121.944 25.7033 121.606 26.5557 120.978 27.2242C120.35 27.8927 119.529 28.2437 118.643 28.2437H103.863V21.2911H118.643C119.545 21.2911 120.35 21.6421 120.994 22.3273C121.606 22.9958 121.944 23.8315 121.944 24.7674Z" fill="#FCFCFC"/>
<path d="M153.502 10.611H131.621V12.533H153.502V10.611V10.611Z" fill="#FCFCFC"/>
<path d="M179.715 24.383L181.406 23.5641C183 22.7953 184.127 21.6086 184.835 19.9206C185.173 19.0683 185.351 18.1658 185.351 17.2967C185.351 16.4109 185.173 15.5084 184.819 14.6059C184.095 12.9179 182.935 11.7145 181.293 10.9457C180.504 10.578 179.683 10.4109 178.781 10.4109L163.501 10.3942V12.383H178.781C180.053 12.383 181.18 12.8844 182.082 13.8204C182.984 14.7563 183.451 15.9596 183.451 17.2967C183.451 18.617 182.984 19.8203 182.082 20.7563C181.18 21.6922 180.037 22.1936 178.781 22.1936H163.501V30.2159H165.385V24.1657H177.252L181.535 30.2159H183.869L179.715 24.383Z" fill="#FCFCFC"/>
<path d="M77.3763 10.628C77.3763 10.628 74.9128 10.628 74.8323 10.628C74.8967 10.6949 84.5896 21.2074 84.5896 21.2074C84.5896 21.2074 84.5896 26.589 84.5896 29.6809C84.5896 29.7645 84.5896 29.848 84.5896 29.9149C85.3463 29.9149 85.7489 29.9149 86.4895 29.9149C86.4895 29.8815 86.5056 20.5389 86.5056 20.5389L77.3763 10.628Z" fill="#FCFCFC"/>
<path d="M93.9928 10.611C93.9928 10.611 87.343 17.5803 86.9244 18.0149C87.4235 18.533 87.7456 18.8839 88.2447 19.4188C90.8853 16.611 93.9123 13.4522 96.5851 10.6277C95.6512 10.611 93.9928 10.611 93.9928 10.611Z" fill="#FCFCFC"/>
<path d="M204.913 16.1764L211.402 10.611H208.327L196.17 20.7558V10.611H194.206V29.9145H196.17V23.3965L203.384 17.4633L212.078 29.9145H214.477L204.913 16.1764Z" fill="#FCFCFC"/>
<path d="M17.7872 0.905365L0.600342 10.6093V30.0171L17.7872 39.721L34.9741 30.0171V10.6093L17.7872 0.905365ZM2.34546 12.7331L16.766 37.1746L2.34546 29.0319V12.7331ZM18.6791 20.8139L30.3471 14.2217L18.6791 33.9821V20.8139ZM17.8038 19.3388L6.11094 12.7277H29.5021L17.8038 19.3388ZM16.934 20.8192V34.0467L5.22462 14.1974L16.934 20.8166V20.8192ZM33.229 12.7519V29.0346L18.8084 37.1773L33.229 12.7519ZM3.36115 11.0211L17.7872 2.87576L32.2106 11.0211H3.3639H3.36115Z" fill="white"/>
</svg>
